<svg xmlns="http://www.w3.org/2000/svg" version="1.1" xmlns:xlink="http://www.w3.org/1999/xlink" width="1000" height="1000"><style>
    #light-icon {
      display: inline;
    }
    #dark-icon {
      display: none;
    }

    @media (prefers-color-scheme: dark) {
      #light-icon {
        display: none;
      }
      #dark-icon {
        display: inline;
      }
    }
  </style><g id="light-icon"><svg xmlns="http://www.w3.org/2000/svg" version="1.1" xmlns:xlink="http://www.w3.org/1999/xlink" width="1000" height="1000"><g clip-path="url(#SvgjsClipPath1352)"><rect width="1000" height="1000" fill="#ffffff"></rect><g transform="matrix(33.333333333333336,0,0,33.333333333333336,100,100)"><svg xmlns="http://www.w3.org/2000/svg" version="1.1" xmlns:xlink="http://www.w3.org/1999/xlink" width="24" height="24"><svg xmlns="http://www.w3.org/2000/svg" viewBox="0 0 24 24" fill="none" stroke="#1E97A4" stroke-width="2" stroke-linecap="round" stroke-linejoin="round" class="lucide lucide-trophy" aria-hidden="true"><path d="M10 14.66v1.626a2 2 0 0 1-.976 1.696A5 5 0 0 0 7 21.978"></path><path d="M14 14.66v1.626a2 2 0 0 0 .976 1.696A5 5 0 0 1 17 21.978"></path><path d="M18 9h1.5a1 1 0 0 0 0-5H18"></path><path d="M4 22h16"></path><path d="M6 9a6 6 0 0 0 12 0V3a1 1 0 0 0-1-1H7a1 1 0 0 0-1 1z"></path><path d="M6 9H4.5a1 1 0 0 1 0-5H6"></path></svg></svg></g></g><defs><clipPath id="SvgjsClipPath1352"><rect width="1000" height="1000" x="0" y="0" rx="350" ry="350"></rect></clipPath></defs></svg></g><g id="dark-icon"><svg xmlns="http://www.w3.org/2000/svg" version="1.1" xmlns:xlink="http://www.w3.org/1999/xlink" width="1000" height="1000"><g clip-path="url(#SvgjsClipPath1353)"><rect width="1000" height="1000" fill="#ffffff"></rect><g transform="matrix(29.166666666666668,0,0,29.166666666666668,150,150)"><svg xmlns="http://www.w3.org/2000/svg" version="1.1" xmlns:xlink="http://www.w3.org/1999/xlink" width="24" height="24"><svg xmlns="http://www.w3.org/2000/svg" viewBox="0 0 24 24" fill="none" stroke="#1E97A4" stroke-width="2" stroke-linecap="round" stroke-linejoin="round" class="lucide lucide-trophy" aria-hidden="true"><path d="M10 14.66v1.626a2 2 0 0 1-.976 1.696A5 5 0 0 0 7 21.978"></path><path d="M14 14.66v1.626a2 2 0 0 0 .976 1.696A5 5 0 0 1 17 21.978"></path><path d="M18 9h1.5a1 1 0 0 0 0-5H18"></path><path d="M4 22h16"></path><path d="M6 9a6 6 0 0 0 12 0V3a1 1 0 0 0-1-1H7a1 1 0 0 0-1 1z"></path><path d="M6 9H4.5a1 1 0 0 1 0-5H6"></path></svg></svg></g></g><defs><clipPath id="SvgjsClipPath1353"><rect width="1000" height="1000" x="0" y="0" rx="350" ry="350"></rect></clipPath></defs></svg></g></svg>